<svg width="867" height="604" viewBox="0 0 867 604" fill="none" xmlns="http://www.w3.org/2000/svg">
<rect width="867" height="604" fill="#E5E5E5"/>
<path d="M399.101 393.612C389.558 398.534 376.173 413.168 369.977 425.471C355.601 454.092 352.503 487.763 363.161 500.455C368.739 507.06 373.324 509.133 380.511 508.355C395.507 506.413 415.213 488.541 424.755 468.467C433.925 449.041 437.148 425.989 433.43 407.729C429.96 391.022 415.46 385.065 399.101 393.612ZM412.362 422.104C416.204 423.528 416.204 423.658 416.204 432.076C416.204 458.237 407.652 476.237 391.294 484.138L385.22 487.116L382.495 483.49C375.926 475.072 375.306 471.057 378.281 457.977C381.998 442.048 390.427 427.931 398.977 423.528C405.174 420.29 406.908 420.161 412.362 422.104Z" fill="#0060BD"/>
<path d="M544.721 391.412C530.22 396.981 517.332 411.614 507.914 432.724C493.537 465.618 494.28 496.052 509.896 505.636C516.961 509.909 522.661 509.651 533.32 504.212C545.712 497.995 559.097 483.36 566.037 468.339C573.473 452.02 575.332 443.344 575.456 424.565C575.456 409.8 575.207 407.859 572.358 402.03C570.622 398.404 567.773 394.389 565.913 392.965C561.575 389.728 551.041 388.95 544.721 391.412ZM555.008 424.176C557.486 427.413 557.733 428.838 557.115 438.163C555.503 460.438 546.952 476.497 532.08 484.915L527.742 487.245L522.786 481.676C516.837 475.072 516.464 470.54 520.306 455.775C524.893 438.94 531.584 427.932 540.507 423.399C547.695 419.644 551.785 419.902 555.008 424.176Z" fill="#0060BD"/>
<path d="M333.17 391.67C314.58 395.295 314.084 395.555 312.845 404.75C311.853 411.354 300.575 470.539 295.866 492.814C294.379 500.197 293.388 506.413 293.759 506.801C294.379 507.449 315.571 503.046 316.315 502.139C316.438 501.88 318.049 494.11 319.661 484.786L322.636 467.949L330.072 465.23C334.161 463.806 339.242 461.604 341.226 460.567C347.298 457.071 355.105 447.747 358.823 439.458C361.674 432.854 362.17 429.874 362.17 420.55C362.17 402.03 355.849 393.094 341.844 391.67C338.746 391.412 334.905 391.412 333.17 391.67ZM341.473 413.038C343.828 417.701 343.455 430.78 340.73 436.867C338.622 441.918 329.452 451.76 326.974 451.76C326.354 451.76 326.105 450.207 326.354 448.135C326.725 446.192 328.088 437.385 329.452 428.451C330.815 419.514 332.302 411.354 332.674 410.06C333.541 407.081 339.615 409.024 341.473 413.038Z" fill="#0060BD"/>
<path d="M467.636 393.354C464.289 394.001 458.34 395.167 454.622 395.943L447.806 397.369L445.575 412.65C442.973 430.004 436.157 468.467 431.696 491.131C429.96 499.549 428.721 506.801 429.093 507.06C429.96 507.967 447.682 502.138 449.417 500.455C450.161 499.679 452.64 490.872 454.746 480.9C456.853 471.057 458.96 461.992 459.58 460.826C460.943 458.365 460.324 457.071 467.636 482.194C470.734 492.814 473.461 502.398 473.832 503.174C474.203 504.34 477.179 503.692 484.615 500.844C490.191 498.771 495.024 496.699 495.273 496.57C495.396 496.311 493.413 491.001 490.811 484.656C488.208 478.309 484.49 468.597 482.508 463.028L479.037 452.926L487.713 444.25C497.503 434.278 502.707 424.565 503.823 414.075C504.567 405.657 502.212 398.663 497.503 395.425C493.785 392.836 477.426 391.8 467.636 393.354ZM489.324 415.499C489.324 419.773 486.226 426.247 482.384 429.874C477.799 434.148 463.794 442.306 462.678 441.142C461.811 440.364 463.669 427.413 465.9 418.349L467.387 412.91H478.294C488.58 412.91 489.324 413.038 489.324 415.499Z" fill="#0060BD"/>
<path d="M202.223 272.702C112.736 310.15 73.7921 301.392 65.5062 292.332C92.8497 328.572 184.616 307.432 227.08 292.332C366.774 251.901 419.369 281.956 428.247 302.091C394.03 224.244 263.316 250.058 202.223 272.702Z" fill="#00A1DD"/>
<path d="M655.043 272.433C738.973 309.443 775.498 300.788 783.269 291.833C757.625 327.65 671.558 306.757 631.729 291.833C500.711 251.876 451.382 281.58 443.054 301.478C475.148 224.542 597.743 250.053 655.043 272.433Z" fill="#00A1DD"/>
<path d="M233.295 219.995C156.011 252.336 122.378 244.773 115.221 236.949C138.837 268.247 218.089 249.99 254.763 236.949C375.406 202.032 420.83 227.989 428.497 245.377C398.945 178.145 286.058 200.439 233.295 219.995Z" fill="#FFD54E"/>
<path d="M624.367 219.764C696.852 251.726 728.397 244.252 735.109 236.519C712.96 267.451 638.629 249.407 604.232 236.519C491.08 202.009 448.477 227.663 441.285 244.848C469.003 178.402 574.881 200.434 624.367 219.764Z" fill="#FFD54E"/>
<path d="M194.825 331.661C102.045 370.486 61.6683 361.406 53.0775 352.013C81.427 389.586 176.57 367.668 220.598 352.013C365.43 310.095 419.962 341.256 429.166 362.13C393.689 281.419 258.166 308.182 194.825 331.661Z" fill="#00A1DD"/>
<path d="M664.307 331.382C751.326 369.754 789.195 360.78 797.253 351.496C770.663 388.63 681.429 366.969 640.135 351.496C504.296 310.068 453.152 340.864 444.518 361.496C477.792 281.727 604.898 308.177 664.307 331.382Z" fill="#00A1DD"/>
<path d="M433.835 179.292C473.738 179.292 506.085 145.49 506.085 103.792C506.085 62.0947 473.738 28.2922 433.835 28.2922C393.933 28.2922 361.585 62.0947 361.585 103.792C361.585 145.49 393.933 179.292 433.835 179.292Z" fill="#FFD54E"/>
</svg>
