<svg width="600" height="400" viewBox="0 0 600 400" fill="none" xmlns="http://www.w3.org/2000/svg">
<path d="M278.455 288.211C271.851 291.471 262.588 301.162 258.3 309.31C248.351 328.264 246.207 350.563 253.583 358.968C257.443 363.342 260.616 364.715 265.59 364.2C275.968 362.914 289.605 351.078 296.209 337.784C302.555 324.919 304.785 309.653 302.212 297.56C299.811 286.496 289.776 282.551 278.455 288.211ZM287.632 307.08C290.291 308.023 290.291 308.109 290.291 313.684C290.291 331.009 284.373 342.93 273.052 348.162L268.849 350.134L266.963 347.733C262.417 342.158 261.988 339.499 264.047 330.837C266.619 320.288 272.452 310.939 278.369 308.023C282.658 305.879 283.858 305.793 287.632 307.08Z" fill="#0060BD"/>
<path d="M379.23 286.754C369.195 290.442 360.276 300.133 353.758 314.113C343.809 335.897 344.323 356.052 355.13 362.399C360.019 365.229 363.964 365.058 371.34 361.456C379.916 357.339 389.179 347.647 393.982 337.699C399.128 326.892 400.414 321.146 400.5 308.71C400.5 298.932 400.328 297.646 398.356 293.786C397.155 291.385 395.183 288.726 393.896 287.783C390.894 285.639 383.604 285.124 379.23 286.754ZM386.349 308.452C388.064 310.596 388.235 311.54 387.807 317.715C386.692 332.467 380.774 343.102 370.482 348.677L367.48 350.22L364.05 346.532C359.933 342.158 359.675 339.157 362.334 329.379C365.508 318.23 370.139 310.94 376.314 307.938C381.288 305.451 384.119 305.622 386.349 308.452Z" fill="#0060BD"/>
<path d="M232.828 286.925C219.963 289.326 219.62 289.498 218.762 295.587C218.076 299.961 210.271 339.156 207.012 353.908C205.983 358.797 205.297 362.914 205.554 363.171C205.983 363.6 220.649 360.684 221.164 360.083C221.249 359.912 222.364 354.766 223.479 348.591L225.538 337.441L230.684 335.64C233.514 334.697 237.03 333.239 238.403 332.552C242.605 330.237 248.008 324.062 250.581 318.573C252.554 314.199 252.897 312.226 252.897 306.051C252.897 293.786 248.523 287.868 238.831 286.925C236.687 286.754 234.029 286.754 232.828 286.925ZM238.574 301.076C240.204 304.164 239.946 312.826 238.06 316.857C236.601 320.202 230.255 326.72 228.54 326.72C228.111 326.72 227.939 325.691 228.111 324.319C228.368 323.032 229.311 317.2 230.255 311.283C231.198 305.365 232.227 299.961 232.485 299.104C233.085 297.131 237.288 298.418 238.574 301.076Z" fill="#0060BD"/>
<path d="M325.884 288.04C323.568 288.469 319.451 289.241 316.878 289.755L312.161 290.699L310.617 300.819C308.816 312.312 304.099 337.784 301.012 352.793C299.811 358.368 298.953 363.171 299.211 363.342C299.811 363.943 312.075 360.083 313.276 358.968C313.791 358.454 315.506 352.622 316.964 346.018C318.422 339.499 319.88 333.496 320.309 332.724C321.252 331.094 320.824 330.237 325.884 346.875C328.028 353.908 329.915 360.255 330.172 360.769C330.429 361.541 332.488 361.112 337.634 359.226C341.493 357.853 344.838 356.481 345.01 356.395C345.095 356.224 343.723 352.707 341.922 348.505C340.121 344.302 337.548 337.87 336.176 334.182L333.774 327.492L339.778 321.746C346.553 315.142 350.155 308.71 350.927 301.763C351.442 296.188 349.812 291.556 346.553 289.412C343.98 287.697 332.659 287.011 325.884 288.04ZM340.893 302.706C340.893 305.536 338.749 309.824 336.09 312.226C332.917 315.056 323.225 320.459 322.453 319.688C321.853 319.173 323.139 310.596 324.683 304.593L325.712 300.991H333.26C340.378 300.991 340.893 301.076 340.893 302.706Z" fill="#0060BD"/>
<path d="M145.715 188.703C83.786 213.503 56.8354 207.703 51.1012 201.703C70.024 225.703 133.53 211.703 162.917 201.703C259.591 174.928 295.989 194.832 302.133 208.166C278.453 156.612 187.994 173.707 145.715 188.703Z" fill="#00A1DD"/>
<path d="M459.085 188.525C517.168 213.035 542.445 207.303 547.823 201.373C530.076 225.093 470.514 211.256 442.951 201.373C352.281 174.911 318.143 194.583 312.38 207.76C334.59 156.809 419.431 173.704 459.085 188.525Z" fill="#00A1DD"/>
<path d="M167.218 153.798C113.734 175.216 90.4585 170.207 85.5062 165.026C101.849 185.753 156.695 173.662 182.075 165.026C265.565 141.902 297 159.092 302.306 170.607C281.855 126.083 203.732 140.847 167.218 153.798Z" fill="#FFD54E"/>
<path d="M437.856 153.645C488.019 174.812 509.849 169.862 514.494 164.741C499.166 185.226 447.726 173.276 423.922 164.741C345.616 141.887 316.133 158.876 311.156 170.257C330.338 126.253 403.61 140.844 437.856 153.645Z" fill="#FFD54E"/>
<path d="M140.595 227.749C76.3875 253.461 48.4452 247.448 42.5 241.227C62.119 266.11 127.962 251.595 158.431 241.227C258.661 213.467 296.399 234.103 302.769 247.927C278.217 194.476 184.43 212.2 140.595 227.749Z" fill="#00A1DD"/>
<path d="M465.496 227.564C525.717 252.976 551.924 247.033 557.5 240.885C539.099 265.477 477.345 251.132 448.768 240.885C354.762 213.449 319.368 233.844 313.393 247.507C336.42 194.68 424.383 212.197 465.496 227.564Z" fill="#00A1DD"/>
<circle cx="302.5" cy="85.6423" r="50" fill="#FFD54E"/>
</svg>
