<svg width="962" height="736" viewBox="0 0 962 736" fill="none" xmlns="http://www.w3.org/2000/svg">
<path d="M447.216 493.246C437.689 498.633 424.326 514.649 418.14 528.115C403.787 559.44 400.694 596.293 411.335 610.183C416.904 617.412 421.481 619.681 428.657 618.83C443.629 616.705 463.302 597.144 472.829 575.173C481.984 553.912 485.201 528.682 481.489 508.696C478.025 490.411 463.548 483.892 447.216 493.246ZM460.455 524.43C464.291 525.988 464.291 526.13 464.291 535.344C464.291 563.977 455.754 583.678 439.422 592.325L433.358 595.584L430.638 591.616C424.079 582.402 423.461 578.008 426.431 563.692C430.141 546.258 438.556 530.808 447.092 525.988C453.28 522.445 455.011 522.303 460.455 524.43Z" fill="#0060BD"/>
<path d="M593.194 490.588C578.66 496.69 565.743 512.726 556.303 535.859C541.893 571.906 542.638 605.257 558.29 615.759C565.371 620.442 571.084 620.159 581.767 614.199C594.188 607.386 607.604 591.349 614.56 574.887C622.013 557.005 623.875 547.497 624 526.919C624 510.739 623.751 508.611 620.895 502.224C619.155 498.251 616.299 493.851 614.435 492.29C610.087 488.743 599.529 487.89 593.194 490.588ZM603.505 526.492C605.989 530.039 606.236 531.602 605.617 541.819C604.002 566.23 595.43 583.828 580.524 593.053L576.177 595.606L571.209 589.504C565.246 582.266 564.872 577.3 568.724 561.12C573.32 542.672 580.028 530.609 588.971 525.641C596.175 521.526 600.275 521.809 603.505 526.492Z" fill="#0060BD"/>
<path d="M380.784 491.211C362.055 495.17 361.556 495.454 360.307 505.494C359.308 512.706 347.946 577.332 343.201 601.656C341.703 609.717 340.705 616.506 341.079 616.929C341.703 617.637 363.054 612.829 363.804 611.838C363.927 611.556 365.551 603.071 367.174 592.889L370.171 574.505L377.663 571.535C381.783 569.98 386.901 567.576 388.9 566.443C395.017 562.626 402.883 552.445 406.628 543.394C409.501 536.182 410 532.929 410 522.747C410 502.524 403.632 492.766 389.523 491.211C386.402 490.93 382.532 490.93 380.784 491.211ZM389.149 514.544C391.522 519.636 391.146 533.918 388.401 540.565C386.277 546.08 377.038 556.827 374.541 556.827C373.917 556.827 373.667 555.131 373.917 552.868C374.291 550.746 375.664 541.13 377.038 531.374C378.411 521.616 379.909 512.706 380.285 511.293C381.158 508.04 387.277 510.162 389.149 514.544Z" fill="#0060BD"/>
<path d="M515.644 492.797C512.295 493.504 506.34 494.776 502.619 495.623L495.796 497.179L493.563 513.857C490.958 532.798 484.136 574.776 479.671 599.511C477.934 608.699 476.693 616.614 477.067 616.896C477.934 617.886 495.672 611.525 497.409 609.687C498.154 608.84 500.634 599.229 502.743 588.346C504.852 577.602 506.961 567.709 507.581 566.437C508.945 563.751 508.326 562.338 515.644 589.758C518.745 601.349 521.474 611.809 521.846 612.656C522.218 613.928 525.196 613.221 532.639 610.113C538.22 607.85 543.058 605.589 543.307 605.447C543.43 605.165 541.445 599.369 538.84 592.444C536.236 585.518 532.514 574.918 530.53 568.84L527.056 557.814L535.74 548.345C545.538 537.461 550.748 526.861 551.865 515.413C552.609 506.225 550.252 498.591 545.538 495.058C541.817 492.231 525.443 491.101 515.644 492.797ZM537.352 516.967C537.352 521.631 534.251 528.697 530.405 532.656C525.816 537.32 511.799 546.224 510.682 544.953C509.814 544.105 511.674 529.969 513.907 520.076L515.396 514.14H526.312C536.607 514.14 537.352 514.28 537.352 516.967Z" fill="#0060BD"/>
<path d="M249.815 361.336C160.263 402.586 121.292 392.939 113 382.959C140.363 422.878 232.195 399.592 274.689 382.959C414.483 338.425 467.116 371.53 476 393.709C441.758 307.96 310.951 336.394 249.815 361.336Z" fill="#00A1DD"/>
<path d="M703.478 360.969C787.601 401.62 824.211 392.113 832 382.278C806.296 421.619 720.031 398.67 680.11 382.278C548.79 338.39 499.347 371.017 491 392.871C523.167 308.367 646.046 336.388 703.478 360.969Z" fill="#00A1DD"/>
<path d="M280.347 303.664C202.883 338.934 169.173 330.686 162 322.154C185.67 356.286 265.106 336.375 301.865 322.154C422.786 284.074 468.315 312.382 476 331.344C446.38 258.024 333.231 282.337 280.347 303.664Z" fill="#FFD54E"/>
<path d="M672.815 303.298C745.59 337.969 777.261 329.861 784 321.473C761.762 355.027 687.134 335.453 652.599 321.473C538.994 284.039 496.221 311.866 489 330.508C516.829 258.43 623.131 282.33 672.815 303.298Z" fill="#FFD54E"/>
<path d="M242.091 426.072C149.086 468.515 108.612 458.59 100 448.32C128.418 489.395 223.792 465.435 267.926 448.32C413.11 402.496 467.773 436.561 477 459.38C441.436 371.147 305.586 400.405 242.091 426.072Z" fill="#00A1DD"/>
<path d="M712.577 425.704C799.909 467.55 837.914 457.764 846 447.64C819.315 488.136 729.761 464.514 688.319 447.64C551.993 402.461 500.665 436.045 492 458.544C525.393 371.554 652.956 400.399 712.577 425.704Z" fill="#00A1DD"/>
<path d="M481.5 261C529.825 261 569 220.929 569 171.5C569 122.071 529.825 82 481.5 82C433.175 82 394 122.071 394 171.5C394 220.929 433.175 261 481.5 261Z" fill="#FFD54E"/>
</svg>
